<mxfile host="app.diagrams.net" modified="2023-01-30T12:08:18.125Z" agent="5.0 (Windows NT 10.0; Win64; x64) AppleWebKit/537.36 (KHTML, like Gecko) Chrome/109.0.0.0 Safari/537.36" version="20.8.5" etag="pgvo3_XbpblAizFXEKXm" type="github">
  <diagram id="WaGIUG3YI4mIRgDy0SML" name="Page-1">
    <mxGraphModel dx="1434" dy="731" grid="1" gridSize="10" guides="1" tooltips="1" connect="1" arrows="1" fold="1" page="1" pageScale="1" pageWidth="850" pageHeight="1100" math="0" shadow="0">
      <root>
        <mxCell id="0" />
        <mxCell id="1" parent="0" />
        <mxCell id="5IvTUc0Q_Xy7pvU0a7Ju-3" value="" style="edgeStyle=orthogonalEdgeStyle;rounded=0;orthogonalLoop=1;jettySize=auto;html=1;" edge="1" parent="1" source="5IvTUc0Q_Xy7pvU0a7Ju-1" target="5IvTUc0Q_Xy7pvU0a7Ju-2">
          <mxGeometry relative="1" as="geometry" />
        </mxCell>
        <mxCell id="5IvTUc0Q_Xy7pvU0a7Ju-13" style="edgeStyle=orthogonalEdgeStyle;rounded=0;orthogonalLoop=1;jettySize=auto;html=1;entryX=0;entryY=0.25;entryDx=0;entryDy=0;" edge="1" parent="1" source="5IvTUc0Q_Xy7pvU0a7Ju-1" target="5IvTUc0Q_Xy7pvU0a7Ju-12">
          <mxGeometry relative="1" as="geometry" />
        </mxCell>
        <mxCell id="5IvTUc0Q_Xy7pvU0a7Ju-21" style="edgeStyle=orthogonalEdgeStyle;rounded=0;orthogonalLoop=1;jettySize=auto;html=1;entryX=0;entryY=0.5;entryDx=0;entryDy=0;" edge="1" parent="1" source="5IvTUc0Q_Xy7pvU0a7Ju-1" target="5IvTUc0Q_Xy7pvU0a7Ju-20">
          <mxGeometry relative="1" as="geometry" />
        </mxCell>
        <mxCell id="5IvTUc0Q_Xy7pvU0a7Ju-1" value="" style="ellipse;whiteSpace=wrap;html=1;aspect=fixed;" vertex="1" parent="1">
          <mxGeometry x="20" y="320" width="80" height="80" as="geometry" />
        </mxCell>
        <mxCell id="5IvTUc0Q_Xy7pvU0a7Ju-5" value="" style="edgeStyle=orthogonalEdgeStyle;rounded=0;orthogonalLoop=1;jettySize=auto;html=1;" edge="1" parent="1" source="5IvTUc0Q_Xy7pvU0a7Ju-2" target="5IvTUc0Q_Xy7pvU0a7Ju-4">
          <mxGeometry relative="1" as="geometry" />
        </mxCell>
        <mxCell id="5IvTUc0Q_Xy7pvU0a7Ju-2" value="LineSensorB" style="whiteSpace=wrap;html=1;" vertex="1" parent="1">
          <mxGeometry x="160" y="330" width="120" height="60" as="geometry" />
        </mxCell>
        <mxCell id="5IvTUc0Q_Xy7pvU0a7Ju-9" value="" style="edgeStyle=orthogonalEdgeStyle;rounded=0;orthogonalLoop=1;jettySize=auto;html=1;" edge="1" parent="1" source="5IvTUc0Q_Xy7pvU0a7Ju-4" target="5IvTUc0Q_Xy7pvU0a7Ju-8">
          <mxGeometry relative="1" as="geometry" />
        </mxCell>
        <mxCell id="5IvTUc0Q_Xy7pvU0a7Ju-11" style="edgeStyle=orthogonalEdgeStyle;rounded=0;orthogonalLoop=1;jettySize=auto;html=1;" edge="1" parent="1" source="5IvTUc0Q_Xy7pvU0a7Ju-4" target="5IvTUc0Q_Xy7pvU0a7Ju-10">
          <mxGeometry relative="1" as="geometry" />
        </mxCell>
        <mxCell id="5IvTUc0Q_Xy7pvU0a7Ju-4" value="if(sensing.line)" style="rhombus;whiteSpace=wrap;html=1;" vertex="1" parent="1">
          <mxGeometry x="330" y="305" width="110" height="110" as="geometry" />
        </mxCell>
        <mxCell id="5IvTUc0Q_Xy7pvU0a7Ju-8" value="RightMotor(drive)" style="whiteSpace=wrap;html=1;" vertex="1" parent="1">
          <mxGeometry x="480" y="290" width="120" height="60" as="geometry" />
        </mxCell>
        <mxCell id="5IvTUc0Q_Xy7pvU0a7Ju-10" value="LeftMotor(drive)" style="whiteSpace=wrap;html=1;" vertex="1" parent="1">
          <mxGeometry x="480" y="370" width="120" height="60" as="geometry" />
        </mxCell>
        <mxCell id="5IvTUc0Q_Xy7pvU0a7Ju-19" style="edgeStyle=orthogonalEdgeStyle;rounded=0;orthogonalLoop=1;jettySize=auto;html=1;" edge="1" parent="1" source="5IvTUc0Q_Xy7pvU0a7Ju-12" target="5IvTUc0Q_Xy7pvU0a7Ju-16">
          <mxGeometry relative="1" as="geometry" />
        </mxCell>
        <mxCell id="5IvTUc0Q_Xy7pvU0a7Ju-12" value="LineSensorC" style="whiteSpace=wrap;html=1;" vertex="1" parent="1">
          <mxGeometry x="160" y="110" width="120" height="60" as="geometry" />
        </mxCell>
        <mxCell id="5IvTUc0Q_Xy7pvU0a7Ju-14" value="" style="edgeStyle=orthogonalEdgeStyle;rounded=0;orthogonalLoop=1;jettySize=auto;html=1;" edge="1" parent="1" source="5IvTUc0Q_Xy7pvU0a7Ju-16" target="5IvTUc0Q_Xy7pvU0a7Ju-17">
          <mxGeometry relative="1" as="geometry" />
        </mxCell>
        <mxCell id="5IvTUc0Q_Xy7pvU0a7Ju-15" style="edgeStyle=orthogonalEdgeStyle;rounded=0;orthogonalLoop=1;jettySize=auto;html=1;" edge="1" parent="1" source="5IvTUc0Q_Xy7pvU0a7Ju-16" target="5IvTUc0Q_Xy7pvU0a7Ju-18">
          <mxGeometry relative="1" as="geometry" />
        </mxCell>
        <mxCell id="5IvTUc0Q_Xy7pvU0a7Ju-16" value="if(sensing.line)" style="rhombus;whiteSpace=wrap;html=1;" vertex="1" parent="1">
          <mxGeometry x="330" y="85" width="110" height="110" as="geometry" />
        </mxCell>
        <mxCell id="5IvTUc0Q_Xy7pvU0a7Ju-17" value="RightMotor(drive)" style="whiteSpace=wrap;html=1;" vertex="1" parent="1">
          <mxGeometry x="480" y="70" width="120" height="60" as="geometry" />
        </mxCell>
        <mxCell id="5IvTUc0Q_Xy7pvU0a7Ju-18" value="LeftMotor(stop)" style="whiteSpace=wrap;html=1;" vertex="1" parent="1">
          <mxGeometry x="480" y="150" width="120" height="60" as="geometry" />
        </mxCell>
        <mxCell id="5IvTUc0Q_Xy7pvU0a7Ju-20" value="LineSensorC" style="whiteSpace=wrap;html=1;" vertex="1" parent="1">
          <mxGeometry x="160" y="550" width="120" height="60" as="geometry" />
        </mxCell>
        <mxCell id="5IvTUc0Q_Xy7pvU0a7Ju-22" value="" style="edgeStyle=orthogonalEdgeStyle;rounded=0;orthogonalLoop=1;jettySize=auto;html=1;" edge="1" parent="1" target="5IvTUc0Q_Xy7pvU0a7Ju-25">
          <mxGeometry relative="1" as="geometry">
            <mxPoint x="280" y="580" as="sourcePoint" />
          </mxGeometry>
        </mxCell>
        <mxCell id="5IvTUc0Q_Xy7pvU0a7Ju-23" value="" style="edgeStyle=orthogonalEdgeStyle;rounded=0;orthogonalLoop=1;jettySize=auto;html=1;" edge="1" parent="1" source="5IvTUc0Q_Xy7pvU0a7Ju-25" target="5IvTUc0Q_Xy7pvU0a7Ju-26">
          <mxGeometry relative="1" as="geometry" />
        </mxCell>
        <mxCell id="5IvTUc0Q_Xy7pvU0a7Ju-24" style="edgeStyle=orthogonalEdgeStyle;rounded=0;orthogonalLoop=1;jettySize=auto;html=1;" edge="1" parent="1" source="5IvTUc0Q_Xy7pvU0a7Ju-25" target="5IvTUc0Q_Xy7pvU0a7Ju-27">
          <mxGeometry relative="1" as="geometry" />
        </mxCell>
        <mxCell id="5IvTUc0Q_Xy7pvU0a7Ju-25" value="if(sensing.line)" style="rhombus;whiteSpace=wrap;html=1;" vertex="1" parent="1">
          <mxGeometry x="330" y="525" width="110" height="110" as="geometry" />
        </mxCell>
        <mxCell id="5IvTUc0Q_Xy7pvU0a7Ju-26" value="RightMotor(stop)" style="whiteSpace=wrap;html=1;" vertex="1" parent="1">
          <mxGeometry x="480" y="510" width="120" height="60" as="geometry" />
        </mxCell>
        <mxCell id="5IvTUc0Q_Xy7pvU0a7Ju-27" value="LeftMotor(stop)" style="whiteSpace=wrap;html=1;" vertex="1" parent="1">
          <mxGeometry x="480" y="590" width="120" height="60" as="geometry" />
        </mxCell>
      </root>
    </mxGraphModel>
  </diagram>
</mxfile>
